<svg width="33" height="32" viewBox="0 0 33 32" fill="none" xmlns="http://www.w3.org/2000/svg">
<path d="M10.2215 27.7656L3.16663 29.3333L4.73437 22.2784C3.73388 20.4075 3.16663 18.27 3.16663 16C3.16663 8.63621 9.13616 2.66667 16.5 2.66667C23.8637 2.66667 29.8333 8.63621 29.8333 16C29.8333 23.3637 23.8637 29.3333 16.5 29.3333C14.23 29.3333 12.0925 28.7661 10.2215 27.7656ZM10.6076 24.948L11.479 25.414C13.0099 26.2327 14.7206 26.6667 16.5 26.6667C22.391 26.6667 27.1666 21.8911 27.1666 16C27.1666 10.109 22.391 5.33334 16.5 5.33334C10.6089 5.33334 5.83329 10.109 5.83329 16C5.83329 17.7793 6.26728 19.49 7.08595 21.0209L7.55191 21.8923L6.67884 25.8211L10.6076 24.948ZM9.83329 16H12.5C12.5 18.2092 14.2908 20 16.5 20C18.7092 20 20.5 18.2092 20.5 16H23.1666C23.1666 19.6819 20.1818 22.6667 16.5 22.6667C12.8181 22.6667 9.83329 19.6819 9.83329 16Z" fill="white"/>
</svg>
